<?xml version="1.0" encoding="iso-8859-1"?>
<!-- Uploaded to: SVG Repo, www.svgrepo.com, Generator: SVG Repo Mixer Tools -->
<svg version="1.1" id="Layer_1" xmlns="http://www.w3.org/2000/svg" xmlns:xlink="http://www.w3.org/1999/xlink" 
	 viewBox="0 0 512.001 512.001" xml:space="preserve">
<rect id="SVGCleanerId_0" x="16.82" y="342.638" style="fill:#7A7C82;" width="478.618" height="34.187"/>
<g>
	<rect id="SVGCleanerId_0_1_" x="16.82" y="342.638" style="fill:#7A7C82;" width="478.618" height="34.187"/>
</g>
<rect x="16.82" y="342.638" style="fill:#64666D;" width="17.094" height="34.187"/>
<path style="fill:#FFC20D;" d="M187.756,392.854h-34.187v102.561h34.187c28.322,0,51.281-22.959,51.281-51.281
	C239.036,415.813,216.077,392.854,187.756,392.854z"/>
<circle style="fill:#F9D84E;" cx="153.564" cy="444.131" r="51.281"/>
<circle style="fill:#909296;" cx="153.564" cy="444.131" r="25.64"/>
<path style="fill:#FFC20D;" d="M409.971,392.854h-34.187v102.561h34.187c28.322,0,51.281-22.959,51.281-51.281
	C461.252,415.813,438.293,392.854,409.971,392.854z"/>
<circle style="fill:#F9D84E;" cx="375.78" cy="444.131" r="51.281"/>
<circle style="fill:#909296;" cx="375.78" cy="444.131" r="25.64"/>
<polygon style="fill:#B169BF;" points="76.648,436.657 8.274,436.657 16.82,376.829 85.194,376.829 "/>
<g>
	<polygon style="fill:#844A8F;" points="85.194,376.829 16.82,376.829 14.379,393.923 82.753,393.923 	"/>
	<polygon style="fill:#844A8F;" points="16.82,376.829 8.274,436.657 25.647,436.657 36.478,376.829 	"/>
</g>
<rect x="358.451" y="292.426" style="fill:#64666D;" width="136.748" height="51.281"/>
<path style="fill:#FD5E95;" d="M42.221,309.524h205.122l111.108-17.094H495.2c4.509-12.85,10.005-33.828,8.547-59.827
	c-2.098-37.423-17.439-64.472-25.64-76.921c-2.849-31.338-5.698-62.677-8.547-94.014c-15.4-12.901-47.667-36.082-94.014-42.734
	c-19.984-2.869-37.553-1.94-51.281,0c-14.244,51.281-28.49,94.014-42.734,145.295l-153.842,94.014l-54.682,5.468
	c-17.476,1.748-30.785,16.454-30.785,34.017L42.221,309.524L42.221,309.524z"/>
<path style="fill:#D14D7B;" d="M247.344,292.43H42.639c-0.27,1.73-0.417,3.498-0.417,5.299v11.795h205.122l111.108-17.094h136.748
	v-17.094H358.453L247.344,292.43z"/>
<path style="fill:#FD8EB4;" d="M55.913,280.804l54.682-5.468l153.842-94.014c0.75-2.702,1.501-5.366,2.251-8.023l-138.999,84.944
	l-54.682,5.468c-12.502,1.25-22.868,9.133-27.758,19.947C48.547,282.17,52.132,281.183,55.913,280.804z"/>
<path style="fill:#D14D7B;" d="M281.531,164.229l-153.842,94.014l167.802-82.631l43.861-158.177
	c-5.425,0.316-10.477,0.847-15.087,1.499C310.02,70.214,295.776,112.948,281.531,164.229z"/>
<path style="fill:#B169BF;" d="M503.746,232.603c-2.098-37.423-17.439-64.472-25.64-76.921c-0.066-0.728-0.132-1.456-0.199-2.184
	c-64.853,14.844-114.036,70.769-118.724,138.932H495.2C499.709,279.58,505.205,258.602,503.746,232.603z"/>
<path style="fill:#844A8F;" d="M359.184,292.43H495.2v-17.094H361.333C360.309,280.935,359.583,286.636,359.184,292.43z"/>
<rect x="42.221" y="309.519" style="fill:#64666D;" width="205.122" height="34.187"/>
<path style="fill:#B169BF;" d="M73.007,263.711c-17.476,1.748-30.785,16.454-30.785,34.017v11.795h85.468v-51.281L73.007,263.711z"
	/>
<path style="fill:#844A8F;" d="M42.221,297.728v11.795h85.468v-17.094H42.638C42.369,294.16,42.221,295.928,42.221,297.728z"/>
<polygon style="fill:#F9D84E;" points="375.784,70.214 435.612,70.214 401.425,112.948 427.065,112.948 333.05,181.322 
	367.238,112.948 341.597,112.948 "/>
<path d="M187.221,444.135c0-18.556-15.097-33.653-33.653-33.653s-33.653,15.097-33.653,33.653c0,18.556,15.097,33.653,33.653,33.653
	S187.221,462.691,187.221,444.135z M135.941,444.135c0-9.72,7.908-17.628,17.628-17.628c9.72,0,17.628,7.908,17.628,17.628
	c0,9.72-7.908,17.628-17.628,17.628C143.849,461.763,135.941,453.855,135.941,444.135z"/>
<path d="M409.437,444.135c0-18.556-15.097-33.653-33.653-33.653s-33.653,15.097-33.653,33.653c0,18.556,15.097,33.653,33.653,33.653
	S409.437,462.691,409.437,444.135z M358.157,444.135c0-9.72,7.908-17.628,17.628-17.628s17.628,7.908,17.628,17.628
	c0,9.72-7.908,17.628-17.628,17.628S358.157,453.855,358.157,444.135z"/>
<path d="M511.746,231.086c-1.958-34.927-14.883-62.08-25.84-79.174l-8.367-92.038c-0.192-2.109-1.21-4.057-2.834-5.417
	c-20.013-16.767-53.266-38.1-98.021-44.523c-17.634-2.531-35.649-2.532-53.54-0.002c-3.155,0.446-5.746,2.719-6.599,5.789
	c-1.924,6.929-3.859,13.723-5.796,20.42l-1.635-0.409c-4.286-1.072-8.643,1.536-9.717,5.83c-1.074,4.294,1.536,8.643,5.83,9.717
	l1.017,0.254c-1.676,5.665-3.349,11.259-5.015,16.799l-0.231-0.072c-4.225-1.31-8.717,1.05-10.027,5.278
	c-1.312,4.226,1.051,8.716,5.278,10.027l0.348,0.108c-0.456,1.505-3.824,12.625-5.06,16.715c-3.612-0.505-7.227,1.514-8.586,5.065
	c-1.505,3.93,0.295,8.307,4.03,10.088c-1.388,4.643-2.78,9.329-4.173,14.068c-3.365-0.544-6.837,1.116-8.443,4.328
	c-1.98,3.958-0.375,8.771,3.583,10.75l0.421,0.21c-1.03,3.589-2.059,7.207-3.085,10.864c-2.72-3.21-7.5-3.79-10.91-1.233
	c-3.422,2.567-4.198,7.342-1.846,10.855l-18.852,11.521l-0.562-0.841c-2.457-3.679-7.434-4.671-11.113-2.213
	c-3.679,2.457-4.671,7.434-2.213,11.113l0.203,0.303L213.07,195.61c-2.495-3.536-7.362-4.467-10.985-2.051
	c-3.445,2.297-4.537,6.799-2.653,10.385l-18.76,11.464c-2.529-3.393-7.296-4.254-10.857-1.879c-3.385,2.255-4.49,6.638-2.743,10.191
	l-20.837,12.734l-0.144-0.261c-2.15-3.868-7.027-5.261-10.896-3.113c-3.868,2.149-5.262,7.028-3.113,10.896l0.467,0.841
	l-7.476,4.568l-52.862,5.286l0,0c-14.002,1.401-26.668,9.864-33.197,22.351c-2.221,4.249-3.71,9.144-4.382,13.892
	c-0.278,1.966-0.422,44.252-0.422,44.252H16.82c-4.425,0-8.547,3.053-8.547,7.478v33.617l-8.2,59.532
	c-0.678,4.756,3.398,9.413,8.2,9.413h68.374c3.987,0,7.368-2.933,7.932-6.879l7.564-52.948h61.424
	c-32.695,0-59.293,26.599-59.293,59.293s26.599,59.293,59.293,59.293h34.187c32.695,0,59.293-26.599,59.293-59.293
	s-26.599-59.293-59.293-59.293h188.029c-32.695,0-59.293,26.599-59.293,59.293s26.599,59.293,59.293,59.293h34.187
	c32.695,0,59.293-26.599,59.293-59.293s-26.599-59.293-59.293-59.293h85.468c4.425,0,8.013-3.855,8.013-8.28l-0.239-84.287
	C510.04,272.818,512.918,251.973,511.746,231.086z M231.024,444.135c0,21.52-15.793,39.414-36.396,42.717
	c11.227-10.796,18.235-25.948,18.235-42.717c0-16.769-7.008-31.921-18.235-42.717C215.23,404.721,231.024,422.615,231.024,444.135z
	 M196.837,444.135c0,23.858-19.41,43.268-43.268,43.268s-43.268-19.41-43.268-43.268s19.41-43.268,43.268-43.268
	S196.837,420.277,196.837,444.135z M453.239,444.135c0,21.52-15.793,39.414-36.396,42.717
	c11.227-10.796,18.234-25.948,18.234-42.717c0-16.769-7.008-31.921-18.234-42.717C437.446,404.721,453.239,422.615,453.239,444.135z
	 M419.052,444.135c0,23.858-19.41,43.268-43.268,43.268s-43.268-19.41-43.268-43.268s19.41-43.268,43.268-43.268
	S419.052,420.277,419.052,444.135z M49.939,296.66c0-1.688,0.306-3.34,0.609-4.941c2.123-11.208,11.425-19.927,23.182-21.103
	l44.187-4.43l1.465-0.157v34.948H49.939C49.939,300.976,49.939,296.66,49.939,296.66z M49.939,317.002h189.097v18.162H49.939
	C49.939,335.164,49.939,317.002,49.939,317.002z M69.698,429.178H17.513l6.257-43.802h52.187L69.698,429.178z M486.892,369.351
	H24.299v-18.162h248.924c4.425,0,8.013-3.587,8.013-8.013c0-4.425-3.587-8.013-8.013-8.013h-18.162v-19.835l95.083-14.628v34.463
	H307.41c-4.425,0-8.013,3.587-8.013,8.013c0,4.425,3.588,8.013,8.013,8.013h179.482V369.351z M366.169,335.164v-35.255h120.723
	v35.255H366.169z M489.409,283.883H368.025c3.943-30.982,17.596-59.509,38.961-81.926c3.052-3.203,2.932-8.409-0.272-11.462
	c-3.203-3.052-8.274-2.999-11.329,0.205c-24.414,25.615-39.751,58.888-43.607,93.882L246.73,300.977H135.407v-39.309l4.783-2.833
	l6.062,10.777c2.263,4.071,7.716,5.344,11.567,2.72c3.375-2.3,4.477-6.938,2.497-10.503l-6.301-11.359l21.882-13.369l6.376,9.561
	c2.613,3.92,8.217,4.719,11.828,1.686c3.085-2.59,3.74-7.226,1.507-10.576l-6.022-9.034l18.704-11.43l6.749,10.123
	c2.613,3.92,8.216,4.719,11.827,1.686c3.085-2.59,3.739-7.226,1.506-10.576l-6.397-9.596l16.924-10.343l6.413,9.603
	c2.616,3.917,8.22,4.711,11.829,1.676c3.082-2.593,3.734-7.229,1.498-10.577l-6.054-9.066l19.585-11.969l8.04,10.72
	c2.827,3.769,8.468,4.253,11.902,1.028c2.936-2.757,3.333-7.423,0.918-10.643l-7.131-9.507c1.635-1.063,2.832-2.682,3.356-4.565
	c1.23-4.427,2.465-8.786,3.7-13.116l12.916,6.458c4.173,2.088,9.358,0.066,11.051-4.266c1.487-3.803-0.236-8.243-3.884-10.067
	l-15.557-7.779c1.503-5.13,3.005-10.195,4.504-15.215l13.051,4.998c4.297,1.645,9.219-0.783,10.541-5.184
	c1.191-3.964-0.948-8.303-4.811-9.782l-14.158-5.422c1.327-4.393,4.853-16.036,5.299-17.507l13.841,4.296
	c4.345,1.347,9.039-1.309,10.148-5.71c1.025-4.069-1.395-8.352-5.397-9.595l-13.958-4.332c1.75-5.816,3.507-11.699,5.269-17.659
	l13.924,3.481c4.354,1.09,8.863-1.744,9.785-6.129c0.874-4.158-1.778-8.387-5.899-9.416l-13.311-3.328
	c1.417-4.904,2.832-9.853,4.246-14.884c14.687-1.639,29.415-1.422,43.857,0.651c39.198,5.626,68.847,23.795,87.476,38.861
	l7.425,81.68c-16.704,4.596-32.469,11.828-46.951,21.554c-3.341,2.245-4.504,6.78-2.641,10.351
	c2.178,4.175,7.659,5.582,11.577,2.952c12.948-8.697,27.033-15.182,41.953-19.323c9.707,15.494,20.785,39.772,22.5,70.378
	C496.721,249.627,494.59,266.79,489.409,283.883z"/>
<path d="M333.052,187.198c1.65,0,3.302-0.507,4.711-1.533l94.014-68.374c2.821-2.051,3.998-5.808,2.857-9.102
	c-1.105-3.19-4.192-5.391-7.57-5.391h-8.97l23.773-29.716c4.121-5.149,0.316-13.018-6.256-13.018h-59.827
	c-2.434,0-4.736,1.107-6.256,3.007l-34.187,42.734c-4.121,5.149-0.316,13.018,6.256,13.018h12.676l-28.389,56.778
	C323.27,180.831,327.187,187.198,333.052,187.198z M374.054,106.599c-1.46-2.362-4.039-3.8-6.816-3.8h-8.97l21.367-26.709h39.305
	l-23.773,29.716c-1.924,2.405-2.299,5.7-0.965,8.476c1.334,2.776,4.142,4.542,7.222,4.542h1l-47.512,34.555l19.492-38.984
	C375.646,111.911,375.514,108.961,374.054,106.599z"/>
</svg>